<svg version="1.1" id="Layer_1" xmlns="http://www.w3.org/2000/svg" xmlns:xlink="http://www.w3.org/1999/xlink" x="0px" y="0px"
	 width="296px" height="162px" viewBox="0 0 296 162" style="enable-background:new 0 0 296 162;" xml:space="preserve">
<style type="text/css">
	.st0{fill:#16FFBD;}
	.st1{fill:#080D14;}
	.st2{fill:#FF8DAC;}
</style>                     <g>
	                            <g>
	                            	<g>
			                        <path class="st2" d="M30.9,20.1v-3.9c-1.4,0-1-0.1-2.4-0.1s-2.2,0.2-3.2,0.7c-0.9,0.5-1.3,1-1.7,1.7c-0.3,0.7-0.5,1.6-0.5,3V22
			                        	h-2L21,25.9h2v9.9h4v-9.9h3.6l0.5-3.9h-4c0,0-0.3-1.2,0.3-1.8C27.7,20,30.9,20.1,30.9,20.1z"></path>
		                        </g>
	                            </g>
                        	<g>
		                    <path class="st2" d="M26,51.3C12,51.3,0.7,39.9,0.7,26S12,0.7,26,0.7C39.9,0.7,51.3,12,51.3,26S39.9,51.3,26,51.3z M26,3.9
		                	C13.8,3.9,3.9,13.8,3.9,26S13.8,48.1,26,48.1S48.1,38.2,48.1,26S38.2,3.9,26,3.9z"></path>
	                                </g>
                                </g>
                                </svg>