<svg version="1.1" id="Layer_1" xmlns="http://www.w3.org/2000/svg" xmlns:xlink="http://www.w3.org/1999/xlink" x="0px" y="0px"
	 width="296px" height="162px" viewBox="0 0 296 162" style="enable-background:new 0 0 296 162;" xml:space="preserve">
<style type="text/css">
	.st0{fill:#16FFBD;}
	.st1{fill:#080D14;}
	.st2{fill:#FF8DAC;}
</style>                    
                                            <g>
		                                        <g>
			                            <path class="st0" d="M68.4,24.3c0,2.4,2.1,3.7,4.4,4.1c-0.4,0.1-0.6,0.5-2.2,0.4c0.6,2,2.4,2.7,4.6,2.7c-1.7,1.3-3.9,1.8-6.3,1.8
				c-0.4,0-0.8,0-1.2-0.1c2.2,1.4,4.8,2.8,7.7,2.8c9.2,0,13.7-6.8,13.7-13.5c0-0.2,0-0.4,0-0.6c1-0.7,2.5-1.7,3.1-2.7
				c-0.9,0.4-1.9,0-3,0.1c1-0.6,2.3-1.4,2.4-3.2c-1,0.6-2.3,1.3-3.4,1.6c-0.9-1-2.2-1.8-3.7-1.8c-2.8,0-4.6,2.6-4.6,5.3
				c0,0.4,0,0.6,0.1,1c-4.2-0.2-8.6-1.6-11.1-4.6c-0.4,0.7-0.7,1.6-0.7,2.5c0,1.7,1.3,3.3,2.7,4.2C70.3,24.3,70.4,24.9,68.4,24.3z"></path>
		                                                                </g>
		                                <g>
			                        <path class="st0" d="M80,51.3C66.1,51.3,54.7,40,54.7,26S66.1,0.7,80,0.7S105.3,12,105.3,26S93.9,51.3,80,51.3z M80,3.9
				                                        c-12.2,0-22.1,9.9-22.1,22.1S67.8,48.1,80,48.1s22.1-9.9,22.1-22.1S92.2,3.9,80,3.9z"></path>
	                                                        	</g>
	                                                </g>
                                                           </svg>