<svg version="1.1" id="Layer_1" xmlns="http://www.w3.org/2000/svg" xmlns:xlink="http://www.w3.org/1999/xlink" x="0px" y="0px"
	 width="296px" height="162px" viewBox="0 0 296 162" style="enable-background:new 0 0 296 162;" xml:space="preserve">
<style type="text/css">
	.st0{fill:#16FFBD;}
	.st1{fill:#080D14;}
	.st2{fill:#FF8DAC;}
</style>               <g>
	                                        <g>
		                                            <path class="st0" d="M127.5,16.6c0,0,2.4-1.4,3.2,0.1c0.7,0.4,2.3,9.7,2.7,11.5c0.3,1.8,1.2,2.5,1.7,1.7s2.3-2.8,3.5-5.6
		                                           	s-0.4-3.2-0.9-3s-3,0.2-2.1-0.9s3.2-3,3.8-3.3c1.1-0.8,2.6-1.8,4-0.1c0.9,0.7,2.9,3,0.9,6.6c-2,3.5-9.4,11.7-9.4,11.7
		                                             	s-2.8,1.9-3.9,0c-1.1-1.9-4.8-10.7-5-11.9c-0.1-1.2-0.4-1.5-1-1.2s-1.8,2.1-1.9,1.6s-1.2-1.2-0.5-2.3
			                            C123.3,20.4,127,16.9,127.5,16.6z"></path>
	                                                    </g>
	                                                        <g>
	                                                	<path class="st0" d="M134,51.3c-13.9,0-25.3-11.3-25.3-25.3S120.1,0.7,134,0.7S159.3,12,159.3,26S147.9,51.3,134,51.3z M134,3.9
			                                            c-12.2,0-22.1,9.9-22.1,22.1s9.9,22.1,22.1,22.1s22.1-9.9,22.1-22.1S146.2,3.9,134,3.9z"></path>
	                                                        </g>
                                                                    </g></svg>
